# xmcd CD database file generated by Grip 2.94
# 
# Track frame offsets:
#       183
#       11720
#       27895
#       40345
#       57395
#       70108
#       81058
#       93670
#       108108
#       120995
#       131795
#       142833
#       156208
#       167533
#       183770
#       198283
# 
# Disc length: 2808 seconds
# 
# Revision: 3
# Processed by: cddbd v1.4b42PL1 Copyright (c) Steve Scherf et al.
# Submitted via: Grip 2.94
# 
DISCID=c90af610
DTITLE=Bobby Bare - Bobby Bare - Super Hits
DYEAR=1900
DGENRE=
TTITLE0=Music City, U.S.A.
TTITLE1=Mary Ann Regrets
TTITLE2=Come Sundown
TTITLE3=Sylvia's Mother
TTITLE4=Traveling Minstrel Man
TTITLE5=Hello Darling
TTITLE6=Rosalie
TTITLE7=Leaving On A Jet Plane
TTITLE8=High And Dry
TTITLE9=The Fool
TTITLE10=How About You
TTITLE11=Mrs. Jones, Your Daughter Cried All Night
TTITLE12=How I Gor To Memphis
TTITLE13=Me And Bobby McGee
TTITLE14=New York Ciry Snow
TTITLE15=The Year That Clayton Delaney Dies
EXTD=
EXTT0=
EXTT1=
EXTT2=
EXTT3=
EXTT4=
EXTT5=
EXTT6=
EXTT7=
EXTT8=
EXTT9=
EXTT10=
EXTT11=
EXTT12=
EXTT13=
EXTT14=
EXTT15=
PLAYORDER=
